# xmcd
#
# Track frame offsets: 
#        150
#        14450
#        27942
#        40427
#        52792
#        66059
#        80033
#        93070
#        104607
#        115604
#        124831
#        136683
#        149500
#        161420
#        170572
#        185307
#        195364
#        206261
#        215881
#        228516
#        242948
#        263545
#        275997
#        290451
#        307888
#        316185
#
# Disc length: 4385 seconds
#
# Revision: 4
# Processed by: cddbd v1.5.2PL0 Copyright (c) Steve Scherf et al.
# Submitted via: ExactAudioCopyFreeDBPlugin 1.0
#
DISCID=71111f1a
DTITLE=Various Artist - Country Planet Country Golden Ballads Vol 1
DYEAR=1900
DGENRE=Country
TTITLE0=Jean-Luc Pinty - New Country
TTITLE1=John Fogerty - Big Train
TTITLE2=Kenny Rogers - Reuben James
TTITLE3=T.Lankford - Freightliner Fever
TTITLE4=Reba McFntire - Climb That Mountain High
TTITLE5=Tanya Tucker - If You Ain`t Busy Tonight
TTITLE6=Cal Smith - The Lord Knows I`m Drinkin
TTITLE7=Connie Smith - Just One Time
TTITLE8=Freddy Weller - Promised Land
TTITLE9=Johnny Cash - Wreck Of The Old
TTITLE10=S.Buono - Ode To 10-33
TTITLE11=Stone Wall Jackson - Me And You And a Dog Named Boo
TTITLE12=Johnny Russel - Workinh` Man Blues
TTITLE13=Margo Smith - There I`ve Said It
TTITLE14=Faron Young - Your Times Comin`
TTITLE15=Green - Six Days On The Road
TTITLE16=Garth Brooks - Against The Grain
TTITLE17=Bobby Lewis - Hello Mary Lou
TTITLE18=Dolly Parton - If You Need Me
TTITLE19=Bob Luman - Lonely Women Make Good Lovers
TTITLE20=Kenny Rogers - Coward Of The Country
TTITLE21=Jody Miller - There`s A Party Going On
TTITLE22=Larry Cordie - Highway 40 Blues
TTITLE23=John Fogerty - Centerfield
TTITLE24=Willie Nelson - Things To Remember
TTITLE25=Kenny Price - Sherriff Of Boone County
EXTD=
EXTT0=
EXTT1=
EXTT2=
EXTT3=
EXTT4=
EXTT5=
EXTT6=
EXTT7=
EXTT8=
EXTT9=
EXTT10=
EXTT11=
EXTT12=
EXTT13=
EXTT14=
EXTT15=
EXTT16=
EXTT17=
EXTT18=
EXTT19=
EXTT20=
EXTT21=
EXTT22=
EXTT23=
EXTT24=
EXTT25=
PLAYORDER=
